<svg width="1430" height="290" viewBox="0 0 1430 290" fill="none" xmlns="http://www.w3.org/2000/svg">
<g id="Group 8">
<path id="G" d="M175.252 258.357C170.564 260.701 165.486 262.752 160.018 264.51C154.549 266.268 149.031 267.684 143.465 268.758C137.898 269.832 132.381 270.613 126.912 271.102C121.443 271.688 116.365 271.98 111.678 271.98C96.4434 271.98 82.8203 269.441 70.8086 264.363C58.7969 259.285 48.5918 252.059 40.1934 242.684C31.8926 233.211 25.5449 221.736 21.1504 208.26C16.7559 194.783 14.5586 179.598 14.5586 162.703C14.5586 145.418 16.9512 129.793 21.7363 115.828C26.5215 101.863 33.3574 89.9492 42.2441 80.0859C51.1309 70.125 61.8242 62.5078 74.3242 57.2344C86.9219 51.8633 100.984 49.1777 116.512 49.1777C125.398 49.1777 134.871 50.0566 144.93 51.8145C154.988 53.4746 164.559 55.7695 173.641 58.6992L175.398 112.166H165.145C164.266 101.521 162.312 92.8789 159.285 86.2383C156.258 79.5 152.498 74.2754 148.006 70.5645C143.514 66.8535 138.387 64.3145 132.625 62.9473C126.961 61.5801 120.955 60.8965 114.607 60.8965C107.967 60.8965 101.668 61.4824 95.7109 62.6543C89.8516 63.8262 84.3828 65.877 79.3047 68.8066C74.2266 71.7363 69.6367 75.6426 65.5352 80.5254C61.5312 85.4082 58.0645 91.6094 55.1348 99.1289C52.3027 106.648 50.1055 115.584 48.543 125.936C47.0781 136.189 46.3457 148.152 46.3457 161.824C46.3457 175.301 47.0293 187.117 48.3965 197.273C49.8613 207.332 51.9121 215.975 54.5488 223.201C57.2832 230.428 60.5547 236.434 64.3633 241.219C68.2695 246.004 72.6152 249.764 77.4004 252.498C82.1855 255.232 87.4102 257.186 93.0742 258.357C98.7383 259.432 104.744 259.969 111.092 259.969C117.342 259.969 123.445 259.725 129.402 259.236C135.457 258.65 141.219 257.332 146.688 255.281V190.389H114.461V178.67H201.619V190.389H175.252V258.357Z" fill="black"/>
<path id="O" d="M243.164 162.557C243.164 145.076 245.508 129.354 250.195 115.389C254.98 101.424 261.621 89.5586 270.117 79.793C278.613 69.9297 288.721 62.3613 300.439 57.0879C312.256 51.8145 325.195 49.1777 339.258 49.1777C353.125 49.1777 365.723 51.7656 377.051 56.9414C388.477 62.0195 398.242 69.2949 406.348 78.7676C414.453 88.2402 420.703 99.7148 425.098 113.191C429.59 126.668 431.836 141.756 431.836 158.455C431.836 174.861 429.639 190.047 425.244 204.012C420.947 217.879 414.697 229.842 406.494 239.9C398.291 249.959 388.232 257.82 376.318 263.484C364.502 269.148 351.123 271.98 336.182 271.98C322.119 271.98 309.375 269.441 297.949 264.363C286.523 259.285 276.758 252.01 268.652 242.537C260.547 233.064 254.248 221.59 249.756 208.113C245.361 194.539 243.164 179.354 243.164 162.557ZM274.951 161.678C274.951 175.154 275.635 186.971 277.002 197.127C278.467 207.186 280.469 215.877 283.008 223.201C285.645 230.428 288.818 236.434 292.529 241.219C296.24 246.004 300.391 249.812 304.98 252.645C309.57 255.477 314.551 257.479 319.922 258.65C325.293 259.725 330.957 260.262 336.914 260.262C342.871 260.262 348.535 259.725 353.906 258.65C359.375 257.479 364.453 255.477 369.141 252.645C373.828 249.715 378.076 245.809 381.885 240.926C385.693 236.043 388.916 229.891 391.553 222.469C394.287 214.949 396.387 206.062 397.852 195.809C399.316 185.457 400.049 173.396 400.049 159.627C400.049 146.15 399.316 134.383 397.852 124.324C396.484 114.168 394.482 105.428 391.846 98.1035C389.307 90.7793 386.182 84.7246 382.471 79.9395C378.76 75.1543 374.609 71.3457 370.02 68.5137C365.527 65.6816 360.596 63.7285 355.225 62.6543C349.854 61.4824 344.189 60.8965 338.232 60.8965C332.275 60.8965 326.562 61.4824 321.094 62.6543C315.625 63.8262 310.547 65.8281 305.859 68.6602C301.172 71.4922 296.924 75.3984 293.115 80.3789C289.307 85.2617 286.035 91.4141 283.301 98.8359C280.664 106.258 278.613 115.145 277.148 125.496C275.684 135.848 274.951 147.908 274.951 161.678Z" fill="black"/>
<path id="U" d="M526.176 198.152C526.176 206.551 526.518 214.461 527.201 221.883C527.982 229.305 529.984 235.799 533.207 241.365C536.527 246.932 541.508 251.375 548.148 254.695C554.887 257.918 564.213 259.529 576.127 259.529C588.236 259.529 598.002 257.869 605.424 254.549C612.846 251.131 618.559 246.492 622.562 240.633C626.664 234.676 629.398 227.693 630.766 219.686C632.133 211.58 632.816 202.84 632.816 193.465V65.877H603.52V54.1582H675.15V65.877H646V191.854C646 204.939 644.926 216.463 642.777 226.424C640.629 236.385 636.771 244.734 631.205 251.473C625.639 258.211 618.119 263.338 608.646 266.854C599.174 270.271 587.113 271.98 572.465 271.98C559.379 271.98 548.1 270.564 538.627 267.732C529.154 264.9 521.391 260.506 515.336 254.549C509.281 248.592 504.789 241.023 501.859 231.844C499.027 222.566 497.611 211.58 497.611 198.885V65.877H468.314V54.1582H555.473V65.877H526.176V198.152Z" fill="black"/>
<path id="R" d="M814.453 54.1582C829.98 54.1582 843.066 55.3301 853.711 57.6738C864.355 60.0176 872.949 63.3379 879.492 67.6348C886.035 71.9316 890.723 77.1562 893.555 83.3086C896.387 89.3633 897.803 96.1016 897.803 103.523C897.803 109.969 896.777 116.072 894.727 121.834C892.773 127.596 889.795 132.82 885.791 137.508C881.787 142.195 876.758 146.248 870.703 149.666C864.746 152.986 857.715 155.525 849.609 157.283V157.869C856.348 159.432 861.865 161.727 866.162 164.754C870.557 167.781 874.072 171.492 876.709 175.887C879.443 180.281 881.543 185.311 883.008 190.975C884.57 196.541 885.938 202.693 887.109 209.432C888.281 216.365 889.307 222.713 890.186 228.475C891.162 234.139 892.432 239.07 893.994 243.27C895.557 247.371 897.656 250.594 900.293 252.938C903.027 255.184 906.787 256.307 911.572 256.307C912.451 256.307 913.672 256.258 915.234 256.16C916.895 256.062 918.701 255.867 920.654 255.574V266.854C918.994 267.244 917.188 267.586 915.234 267.879C913.281 268.172 911.279 268.367 909.229 268.465C907.275 268.66 905.322 268.758 903.369 268.758C901.514 268.855 899.854 268.904 898.389 268.904C889.893 268.904 883.203 268.025 878.32 266.268C873.535 264.412 869.824 261.58 867.188 257.771C864.648 253.963 862.842 249.178 861.768 243.416C860.693 237.654 859.668 230.818 858.691 222.908C857.227 211.385 855.762 201.717 854.297 193.904C852.832 186.092 850.781 179.842 848.145 175.154C845.508 170.369 841.943 167 837.451 165.047C832.959 162.996 826.855 161.971 819.141 161.971H791.602V255.281H822.363V267H733.74V255.281H763.037V65.877H733.74V54.1582H814.453ZM791.602 150.252H811.084C821.631 150.252 830.42 149.373 837.451 147.615C844.58 145.857 850.293 143.123 854.59 139.412C858.984 135.604 862.061 130.818 863.818 125.057C865.674 119.197 866.602 112.166 866.602 103.963C866.602 97.127 865.869 91.3164 864.404 86.5312C862.939 81.6484 860.205 77.6934 856.201 74.666C852.295 71.6387 846.826 69.4414 839.795 68.0742C832.861 66.6094 823.828 65.877 812.695 65.877H791.602V150.252Z" fill="black"/>
<path id="A" d="M1048.27 255.281V267H976.93V255.281H1004.76L1080.93 51.9609H1092.51L1163.99 255.281H1192.99V267H1102.91V255.281H1133.38L1111.4 192.732H1042.26L1018.97 255.281H1048.27ZM1077.71 98.25L1046.8 180.867H1107.3L1078.3 98.25H1077.71Z" fill="black"/>
<path id="V" d="M1329.56 222.908H1330.14L1388.88 65.877H1359.59V54.1582H1429.46V65.877H1403.09L1326.92 269.197H1315.35L1243.86 65.877H1214.86V54.1582H1304.95V65.877H1274.48L1329.56 222.908Z" fill="black"/>
</g>
</svg>
